<svg fill="#2483ff" class="icon" viewBox="0 0 4022 1024" xmlns="http://www.w3.org/2000/svg" width="251.375" height="64"><defs><style/></defs><path d="M787.03 786.06l131.14-223.701-131.14-223.442H0l131.14 227.066 129.456 222.924-129.457 235.028h524.622l131.14-237.876zm-262.343 0H265.386l128.161-223.701h262.344zm2001.59-447.143h-1049.31l131.14 223.7h262.344l-131.204 228.88 131.204 227.972 131.139-228.426 131.204-228.426h262.343l131.14-223.7zm-868.394 447.401h.13l-131.204-223.7-131.14-223.701h-262.343l-131.204 223.7-131.14 223.701h-.064L739.714 1024h524.751l-134.829-231.21 3.56-6.472h.13l131.14-227.196 131.203 227.196h-.13L1526.745 1024h262.343l-131.204-237.682zm1464.993 0l-131.204-223.7-131.139-223.701H2598.19l-131.204 223.7-131.14 223.701h-.13L2204.578 1024h524.687L2598.06 786.318h.13l131.139-227.196 131.204 227.196h-.13L2991.609 1024h262.278l-131.14-237.682h.13zm600.872-447.401l-131.204 223.7h-.065l-131.204 227.196-131.139-227.196h.065l-131.14-223.7h-262.343l131.14 223.7h-.065l131.139 230.692L3330.136 1024h262.343l131.14-230.691 131.204-230.692h.064l131.205-223.7h-262.344zM556.662 9.32h40.456c59.808 0 109.584 31.653 109.584 96.705 0 66.605-48.74 98.71-110.038 98.71h-40.002zM581 182.47h8.544c49.776 0 92.82-18.707 92.82-75.409s-42.85-75.473-92.625-75.473h-8.545zm177.938-26.733l-22.266 49H710.78l93.015-203.7 93.338 203.7H871.24l-22.266-49zm44.857-101.105L769.1 133.664h69.454zm141.237 150.104h-24.338V31.587h-46.41V9.321h117.158v22.266h-46.41zm72.819-48.999l-22.267 49H969.37l93.338-203.7 93.274 203.7h-25.891l-22.267-49zm44.856-101.105l-34.759 79.033h69.454zm249.01 99.293L1369.972 9.32h26.733l-84.794 205.77-85.182-205.77h26.668zm124.86 50.811h-24.337V9.321h24.337zM1559.95 46.41a33.4 33.4 0 00-31.328-18.447c-15.6 0-32.364 10.615-32.364 27.768 0 15.276 15.082 23.302 27.25 27.963l13.982 5.437c27.703 10.874 48.481 25.891 48.481 58.838a61.621 61.621 0 01-122.983 6.472l24.596-5.178a36.96 36.96 0 1073.855-1.035c0-20.972-16.83-30.034-33.658-37.025l-13.529-5.696c-22.266-9.645-42.461-22.331-42.461-49.517 0-31.652 27.962-50.553 57.543-50.553a55.86 55.86 0 0150.035 29.257zm73.337-37.09v115.346c0 31.847 9.58 61.428 47.187 61.428s47.187-29.581 47.187-61.428V9.321h24.338v123.63c0 43.045-26.668 75.927-71.525 75.927s-71.524-32.882-71.524-75.926V9.32zm180.074 146.416l-22.266 49h-25.891l93.014-203.7 93.338 203.7h-26.215l-22.331-49zm44.857-101.105l-34.694 79.033h69.453zm133.987 127.838h59.68v22.266h-84.147V9.321h24.403zm98.97 22.266h-24.338V9.321h24.338zm158.843-22.266v22.266H2111.37l99.034-173.148h-85.053V9.321h124.667l-98.97 173.148zm48.481-26.733l-22.331 49h-25.891l92.885-203.7 93.338 203.7h-26.215l-21.814-49zm44.663-101.105l-34.695 79.033h69.454zm141.625 150.104h-24.338V31.587h-46.086V9.321h117.158v22.266h-46.41zm89.13 0h-24.337V9.321h24.338zm227.585-97.675a102.4 102.4 0 01-204.735 0 102.4 102.4 0 01204.735 0zm-24.338 0a78.062 78.062 0 10-156.06 0 78.062 78.062 0 10156.06 0zM2822.667 0l146.739 153.665V9.32h24.338v203.44L2847.07 59.098v145.638h-24.403zm305 182.469h59.42v22.266h-83.759V9.321h24.338z"/><path d="M3230.843 155.736l-22.267 49h-26.214l93.273-203.7 93.338 203.7h-25.891l-22.526-49zm44.792-101.105l-34.694 78.839h69.453zm107.578-45.31h23.82c36.83 0 71.201 9.58 71.201 53.66a41.944 41.944 0 01-20.648 36.96v.517a50.423 50.423 0 0139.16 49.517c0 39.16-33.464 54.696-67.964 54.696h-45.31zm24.338 86.606h6.473c23.108 0 42.008-4.725 42.008-32.688s-18.641-32.364-41.49-32.364h-6.473zm0 87.06h18.642c22.59 0 46.15-6.473 46.15-34.5s-27.962-33.141-49.775-33.141h-15.017z"/></svg>