<?xml version="1.0" encoding="utf-8"?>
<!-- Generator: Adobe Illustrator 15.0.0, SVG Export Plug-In  -->
<!DOCTYPE svg PUBLIC "-//W3C//DTD SVG 1.1//EN" "http://www.w3.org/Graphics/SVG/1.1/DTD/svg11.dtd" [
	<!ENTITY ns_flows "http://ns.adobe.com/Flows/1.0/">
]>
<svg t="1572747186718" class="icon" viewBox="0 0 1027 1024" version="1.1" xmlns="http://www.w3.org/2000/svg" p-id="1080" width="200" height="200"><path d="M67.584 724.992c51.2-293.888 181.248-403.456 334.848-446.464 192.512-55.296 361.472-15.36 524.288-94.208 98.304-47.104 94.208 37.888 92.16 51.2-24.576 196.608-126.976 384-344.064 473.088-237.568 97.28-471.04-82.944-641.024 199.68-1.024 2.048-3.072 3.072-5.12 3.072H7.168c-4.096 0-7.168-3.072-7.168-7.168 0-1.024 0-2.048 1.024-3.072 63.488-129.024 155.648-240.64 272.384-329.728C378.88 491.52 505.856 429.056 650.24 379.904c11.264-4.096 7.168-21.504-5.12-19.456-111.616 26.624-211.968 61.44-305.152 115.712-97.28 57.344-186.368 135.168-272.384 248.832z" fill="#ffffff" p-id="1081"></path></svg>