<?xml version="1.0" standalone="no"?><!DOCTYPE svg PUBLIC "-//W3C//DTD SVG 1.1//EN" "http://www.w3.org/Graphics/SVG/1.1/DTD/svg11.dtd"><svg t="1609918602644" class="icon" viewBox="0 0 1024 1024" version="1.1" xmlns="http://www.w3.org/2000/svg" p-id="694" xmlns:xlink="http://www.w3.org/1999/xlink" width="200" height="200"><defs><style type="text/css"></style></defs><path d="M638.08398222 707.66364445c-25.15854222-4.00497778-25.74108445-73.18186667-25.74108444-73.18186667s73.91004445-73.18186667 90.03918222-171.59509333c43.32657778 0 70.12352-104.60273778 26.76053333-141.41212445C730.96305778 282.77191112 784.84821333 17.35111112 512 17.35111112c-272.84821333 0-218.96305778 265.4208-217.17902222 304.15985777-43.32657778 36.80938667-16.56604445 141.41212445 26.76053333 141.41212445 16.09272889 98.41322667 90.03918222 171.59509333 90.03918222 171.59509333s-0.58254222 69.17688889-25.74108444 73.18186667C304.86983111 720.5888 2.27555555 854.02737778 2.27555555 1000.39111112l509.72444445 0 509.72444445 0C1021.72444445 854.02737778 719.13016889 720.5888 638.08398222 707.66364445z" p-id="695" fill="#929292"></path></svg>